<svg width="127" height="32" viewBox="0 0 127 32" fill="none" xmlns="http://www.w3.org/2000/svg">
<path fill-rule="evenodd" clip-rule="evenodd" d="M0 0.701477H50V22.4205H42.6589C40.2119 22.4205 37.1265 20.4878 37.1265 17.1594H24.9977V22.4205H17.6612C15.2142 22.4205 12.1288 20.4878 12.1288 17.1594H0V9.77049H7.34109C9.78812 9.77049 12.8735 11.7031 12.8735 15.0316H25.0023V9.77049H32.3388C34.7858 9.77049 37.8712 11.7031 37.8712 15.0316H50V8.58944H37.8712C37.8712 5.36837 34.7858 3.32837 30.9557 3.32837H24.9977V8.58944H12.8735C12.8735 5.36837 9.78812 3.32837 5.95798 3.32837H0V0.701477ZM25.0023 23.6015V28.8626H19.0443C15.2142 28.8626 12.1288 26.8226 12.1288 23.6015H0V31.2985H50V28.8626H44.042C40.2119 28.8626 37.1265 26.8226 37.1265 23.6015H25.0023Z" fill="url(#paint0_linear_67_159)"/>
<path d="M58.128 24.5V22.196H60.384V10.004H58.128V7.7H66.648C67.656 7.7 68.536 7.876 69.288 8.228C70.04 8.564 70.624 9.052 71.04 9.692C71.472 10.316 71.688 11.06 71.688 11.924V12.164C71.688 12.932 71.544 13.564 71.256 14.06C70.968 14.556 70.616 14.94 70.2 15.212C69.8 15.484 69.416 15.676 69.048 15.788V16.172C69.416 16.268 69.808 16.46 70.224 16.748C70.656 17.02 71.016 17.404 71.304 17.9C71.608 18.396 71.76 19.044 71.76 19.844V20.084C71.76 21.012 71.544 21.804 71.112 22.46C70.68 23.116 70.08 23.62 69.312 23.972C68.56 24.324 67.688 24.5 66.696 24.5H58.128ZM63 22.148H66.384C67.248 22.148 67.928 21.94 68.424 21.524C68.92 21.108 69.168 20.532 69.168 19.796V19.58C69.168 18.844 68.92 18.268 68.424 17.852C67.944 17.436 67.264 17.228 66.384 17.228H63V22.148ZM63 14.852H66.384C67.2 14.852 67.856 14.652 68.352 14.252C68.848 13.836 69.096 13.276 69.096 12.572V12.332C69.096 11.628 68.848 11.076 68.352 10.676C67.872 10.26 67.216 10.052 66.384 10.052H63V14.852ZM74.7381 24.5V12.668H77.2101V24.5H74.7381ZM75.9861 11.06C75.5061 11.06 75.0981 10.908 74.7621 10.604C74.4421 10.284 74.2821 9.876 74.2821 9.38C74.2821 8.884 74.4421 8.484 74.7621 8.18C75.0981 7.86 75.5061 7.7 75.9861 7.7C76.4821 7.7 76.8901 7.86 77.2101 8.18C77.5301 8.484 77.6901 8.884 77.6901 9.38C77.6901 9.876 77.5301 10.284 77.2101 10.604C76.8901 10.908 76.4821 11.06 75.9861 11.06ZM86.6387 24.836C85.4387 24.836 84.3667 24.58 83.4227 24.068C82.4787 23.54 81.7347 22.772 81.1907 21.764C80.6467 20.756 80.3747 19.524 80.3747 18.068V14.132C80.3747 11.94 80.9747 10.268 82.1747 9.116C83.3747 7.948 84.9987 7.364 87.0467 7.364C89.0627 7.364 90.6147 7.916 91.7027 9.02C92.7907 10.108 93.3347 11.572 93.3347 13.412V13.532H90.7667V13.34C90.7667 12.652 90.6307 12.036 90.3587 11.492C90.0867 10.932 89.6787 10.492 89.1347 10.172C88.5907 9.852 87.8947 9.692 87.0467 9.692C85.7667 9.692 84.7667 10.084 84.0467 10.868C83.3267 11.636 82.9667 12.708 82.9667 14.084V18.116C82.9667 19.476 83.3267 20.556 84.0467 21.356C84.7667 22.14 85.7747 22.532 87.0707 22.532C88.3507 22.532 89.2867 22.18 89.8787 21.476C90.4707 20.772 90.7667 19.86 90.7667 18.74V18.428H86.2547V16.196H93.3347V24.5H90.9347V22.796H90.5507C90.4067 23.1 90.1907 23.412 89.9027 23.732C89.6307 24.052 89.2307 24.316 88.7027 24.524C88.1907 24.732 87.5027 24.836 86.6387 24.836ZM96.6739 24.5V7.7H103.73C104.77 7.7 105.682 7.884 106.466 8.252C107.266 8.604 107.882 9.116 108.314 9.788C108.762 10.46 108.986 11.26 108.986 12.188V12.452C108.986 13.508 108.73 14.356 108.218 14.996C107.722 15.62 107.114 16.06 106.394 16.316V16.7C107.002 16.732 107.49 16.94 107.858 17.324C108.226 17.692 108.41 18.228 108.41 18.932V24.5H105.794V19.292C105.794 18.86 105.682 18.516 105.458 18.26C105.234 18.004 104.874 17.876 104.378 17.876H99.2659V24.5H96.6739ZM99.2659 15.524H103.442C104.37 15.524 105.09 15.292 105.602 14.828C106.114 14.348 106.37 13.7 106.37 12.884V12.692C106.37 11.876 106.114 11.236 105.602 10.772C105.106 10.292 104.386 10.052 103.442 10.052H99.2659V15.524ZM118.126 24.836C116.798 24.836 115.654 24.596 114.694 24.116C113.75 23.636 113.014 22.948 112.486 22.052C111.974 21.14 111.718 20.036 111.718 18.74V7.7H114.334V18.812C114.334 19.996 114.662 20.908 115.318 21.548C115.974 22.188 116.91 22.508 118.126 22.508C119.342 22.508 120.278 22.188 120.934 21.548C121.59 20.908 121.918 19.996 121.918 18.812V7.7H124.51V18.74C124.51 20.036 124.254 21.14 123.742 22.052C123.23 22.948 122.494 23.636 121.534 24.116C120.574 24.596 119.438 24.836 118.126 24.836Z" fill="#FAFAFA"/>
<defs>
<linearGradient id="paint0_linear_67_159" x1="-6.596e-07" y1="15.6268" x2="49.9067" y2="15.1604" gradientUnits="userSpaceOnUse">
<stop stop-color="#B5C4FF"/>
<stop offset="0.250464" stop-color="#4E74FC"/>
<stop offset="0.501604" stop-color="#7F97EE"/>
<stop offset="0.783157" stop-color="#4E74FC"/>
<stop offset="1" stop-color="#B5C4FF"/>
</linearGradient>
</defs>
</svg>
