<svg width="152" height="37" viewBox="0 0 152 37" fill="none" xmlns="http://www.w3.org/2000/svg">
<path fill-rule="evenodd" clip-rule="evenodd" d="M0 0.240479H59.6774V9.65514H45.2011C45.2011 5.81064 41.5186 3.3758 36.9471 3.3758H29.836V9.65514H15.3651C15.3651 5.81064 11.6826 3.3758 7.11112 3.3758H0V0.240479ZM0 11.0648V19.8838H14.4763C14.4763 23.8565 18.1588 26.1632 21.0795 26.1632H29.836V19.8838H44.3123C44.3123 23.8565 47.9948 26.1632 50.9155 26.1632H59.6774L59.6774 17.3441H45.2011C45.2011 13.3715 41.5186 11.0648 38.5979 11.0648H29.8414V17.3441H15.3651C15.3651 13.3715 11.6826 11.0648 8.76193 11.0648H0ZM59.6774 33.8521H52.5663C47.9948 33.8521 44.3123 31.4173 44.3123 27.5728H29.8414V33.8521H22.7303C18.1588 33.8521 14.4763 31.4173 14.4763 27.5728H0V36.7595H59.6774L59.6774 33.8521Z" fill="white"/>
<path d="M69.3785 28V25.2501H72.0712V10.6983H69.3785V7.94839H79.5476C80.7507 7.94839 81.801 8.15845 82.6985 8.57858C83.5961 8.97961 84.2931 9.56206 84.7896 10.3259C85.3053 11.0707 85.5631 11.9587 85.5631 12.9899V13.2764C85.5631 14.193 85.3912 14.9474 85.0475 15.5394C84.7037 16.1314 84.2836 16.5897 83.7871 16.9143C83.3096 17.239 82.8513 17.4681 82.4121 17.6018V18.0601C82.8513 18.1747 83.3192 18.4039 83.8157 18.7476C84.3313 19.0723 84.761 19.5306 85.1047 20.1226C85.4676 20.7146 85.649 21.488 85.649 22.4428V22.7293C85.649 23.8369 85.3912 24.7822 84.8756 25.5652C84.36 26.3481 83.6438 26.9497 82.7272 27.3698C81.8296 27.7899 80.7889 28 79.6049 28H69.3785ZM75.1935 25.1928H79.2325C80.2637 25.1928 81.0753 24.9445 81.6673 24.448C82.2593 23.9515 82.5553 23.264 82.5553 22.3855V22.1277C82.5553 21.2493 82.2593 20.5618 81.6673 20.0653C81.0944 19.5688 80.2828 19.3205 79.2325 19.3205H75.1935V25.1928ZM75.1935 16.4846H79.2325C80.2064 16.4846 80.9894 16.2459 81.5814 15.7685C82.1734 15.272 82.4694 14.6036 82.4694 13.7634V13.4769C82.4694 12.6366 82.1734 11.9778 81.5814 11.5004C81.0085 11.0039 80.2255 10.7556 79.2325 10.7556H75.1935V16.4846ZM89.2035 28V13.8779H92.1539V28H89.2035ZM90.693 11.9587C90.1201 11.9587 89.6331 11.7773 89.2321 11.4145C88.8502 11.0325 88.6592 10.5455 88.6592 9.95355C88.6592 9.36155 88.8502 8.88413 89.2321 8.52129C89.6331 8.13935 90.1201 7.94839 90.693 7.94839C91.285 7.94839 91.772 8.13935 92.1539 8.52129C92.5358 8.88413 92.7268 9.36155 92.7268 9.95355C92.7268 10.5455 92.5358 11.0325 92.1539 11.4145C91.772 11.7773 91.285 11.9587 90.693 11.9587ZM103.407 28.401C101.975 28.401 100.696 28.0955 99.569 27.4844C98.4423 26.8542 97.5543 25.9375 96.905 24.7345C96.2557 23.5314 95.931 22.0609 95.931 20.3231V15.6253C95.931 13.009 96.6472 11.0134 98.0794 9.63845C99.5117 8.24439 101.45 7.54735 103.894 7.54735C106.301 7.54735 108.153 8.20619 109.452 9.52387C110.75 10.8225 111.399 12.5698 111.399 14.7659V14.9092H108.334V14.68C108.334 13.8588 108.172 13.1236 107.847 12.4743C107.523 11.8059 107.036 11.2808 106.387 10.8988C105.737 10.5169 104.907 10.3259 103.894 10.3259C102.367 10.3259 101.173 10.7938 100.314 11.7295C99.4544 12.6462 99.0247 13.9257 99.0247 15.568V20.3804C99.0247 22.0036 99.4544 23.2926 100.314 24.2475C101.173 25.1832 102.376 25.6511 103.923 25.6511C105.451 25.6511 106.568 25.231 107.275 24.3907C107.981 23.5505 108.334 22.4619 108.334 21.1252V20.7528H102.949V18.0888H111.399V28H108.535V25.9662H108.077C107.905 26.329 107.647 26.7014 107.303 27.0834C106.979 27.4653 106.501 27.7804 105.871 28.0286C105.26 28.2769 104.439 28.401 103.407 28.401ZM115.385 28V7.94839H123.807C125.048 7.94839 126.136 8.168 127.072 8.60722C128.027 9.02735 128.762 9.63845 129.278 10.4405C129.813 11.2426 130.08 12.1974 130.08 13.305V13.6201C130.08 14.8805 129.774 15.8926 129.163 16.6565C128.571 17.4013 127.846 17.9265 126.986 18.232V18.6903C127.712 18.7285 128.294 18.9768 128.734 19.4351C129.173 19.8743 129.392 20.5141 129.392 21.3543V28H126.27V21.784C126.27 21.2684 126.136 20.8578 125.869 20.5523C125.602 20.2467 125.172 20.0939 124.58 20.0939H118.479V28H115.385ZM118.479 17.2867H123.463C124.57 17.2867 125.43 17.0098 126.041 16.456C126.652 15.8831 126.958 15.1097 126.958 14.1357V13.9066C126.958 12.9326 126.652 12.1688 126.041 11.615C125.449 11.0421 124.59 10.7556 123.463 10.7556H118.479V17.2867ZM140.989 28.401C139.404 28.401 138.039 28.1146 136.893 27.5417C135.766 26.9688 134.888 26.1476 134.257 25.0782C133.646 23.9897 133.341 22.672 133.341 21.1252V7.94839H136.463V21.2111C136.463 22.6243 136.855 23.7128 137.638 24.4766C138.42 25.2405 139.538 25.6225 140.989 25.6225C142.44 25.6225 143.558 25.2405 144.34 24.4766C145.123 23.7128 145.515 22.6243 145.515 21.2111V7.94839H148.609V21.1252C148.609 22.672 148.303 23.9897 147.692 25.0782C147.081 26.1476 146.202 26.9688 145.057 27.5417C143.911 28.1146 142.555 28.401 140.989 28.401Z" fill="white"/>
</svg>
