<svg width="93" height="60" viewBox="0 0 93 60" fill="none" xmlns="http://www.w3.org/2000/svg">
<path d="M69.9291 14.9216H92V0.99999H0.999992V5.41417H12.2052C16.2798 5.41417 24.4291 7.53977 24.4291 14.9216H46.5V5.41417H58.0448C61.4403 5.41417 69.9291 7.53977 69.9291 14.9216Z" stroke="#7593FF" stroke-width="1.01866"/>
<path d="M23.0709 44.9216H1V58.8433H92V54.4291H80.7948C76.7202 54.4291 68.5709 52.3035 68.5709 44.9216H46.5V54.4291H34.9552C31.5597 54.4291 23.0709 52.3035 23.0709 44.9216Z" stroke="#7593FF" stroke-width="1.01866"/>
<path d="M17.46 36V22H19.62V34.04H26.36V36H17.46ZM32.9798 36.28C31.9932 36.28 31.1132 36.08 30.3398 35.68C29.5798 35.2667 28.9798 34.68 28.5398 33.92C28.0998 33.16 27.8798 32.26 27.8798 31.22V30.92C27.8798 29.88 28.0998 28.9867 28.5398 28.24C28.9798 27.48 29.5798 26.8933 30.3398 26.48C31.1132 26.0667 31.9932 25.86 32.9798 25.86C33.9665 25.86 34.8465 26.0667 35.6198 26.48C36.3932 26.8933 36.9998 27.48 37.4398 28.24C37.8798 28.9867 38.0998 29.88 38.0998 30.92V31.22C38.0998 32.26 37.8798 33.16 37.4398 33.92C36.9998 34.68 36.3932 35.2667 35.6198 35.68C34.8465 36.08 33.9665 36.28 32.9798 36.28ZM32.9798 34.44C33.8865 34.44 34.6198 34.1533 35.1798 33.58C35.7532 32.9933 36.0398 32.1867 36.0398 31.16V30.98C36.0398 29.9533 35.7598 29.1533 35.1998 28.58C34.6398 27.9933 33.8998 27.7 32.9798 27.7C32.0865 27.7 31.3532 27.9933 30.7798 28.58C30.2198 29.1533 29.9398 29.9533 29.9398 30.98V31.16C29.9398 32.1867 30.2198 32.9933 30.7798 33.58C31.3532 34.1533 32.0865 34.44 32.9798 34.44ZM40.6645 36V22H42.7245V29.98H43.0445L46.9245 26.14H49.6645L44.6845 30.92L49.8245 36H47.1045L43.0445 31.9H42.7245V36H40.6645ZM54.5253 36.28C53.8186 36.28 53.1853 36.16 52.6253 35.92C52.0786 35.68 51.6386 35.3267 51.3053 34.86C50.9853 34.3933 50.8253 33.8267 50.8253 33.16C50.8253 32.48 50.9853 31.92 51.3053 31.48C51.6386 31.0267 52.0853 30.6867 52.6453 30.46C53.2186 30.2333 53.8653 30.12 54.5853 30.12H57.5853V29.48C57.5853 28.9067 57.412 28.4467 57.0653 28.1C56.7186 27.7533 56.1853 27.58 55.4653 27.58C54.7586 27.58 54.2186 27.7467 53.8453 28.08C53.472 28.4133 53.2253 28.8467 53.1053 29.38L51.1853 28.76C51.3453 28.2267 51.5986 27.7467 51.9453 27.32C52.3053 26.88 52.7786 26.5267 53.3653 26.26C53.952 25.9933 54.6586 25.86 55.4853 25.86C56.7653 25.86 57.772 26.1867 58.5053 26.84C59.2386 27.4933 59.6053 28.42 59.6053 29.62V33.68C59.6053 34.08 59.792 34.28 60.1653 34.28H61.0053V36H59.4653C58.9986 36 58.6186 35.88 58.3253 35.64C58.032 35.4 57.8853 35.0733 57.8853 34.66V34.6H57.5853C57.4786 34.8 57.3186 35.0333 57.1053 35.3C56.892 35.5667 56.5786 35.8 56.1653 36C55.752 36.1867 55.2053 36.28 54.5253 36.28ZM54.8253 34.58C55.652 34.58 56.3186 34.3467 56.8253 33.88C57.332 33.4 57.5853 32.7467 57.5853 31.92V31.72H54.7053C54.1586 31.72 53.7186 31.84 53.3853 32.08C53.052 32.3067 52.8853 32.6467 52.8853 33.1C52.8853 33.5533 53.0586 33.9133 53.4053 34.18C53.752 34.4467 54.2253 34.58 54.8253 34.58ZM66.9702 36.28C65.7168 36.28 64.6768 36 63.8502 35.44C63.0235 34.88 62.5168 34.0333 62.3302 32.9L64.2502 32.44C64.3568 32.9867 64.5368 33.42 64.7902 33.74C65.0435 34.06 65.3568 34.2867 65.7302 34.42C66.1168 34.5533 66.5302 34.62 66.9702 34.62C67.6235 34.62 68.1235 34.4933 68.4702 34.24C68.8302 33.9867 69.0102 33.66 69.0102 33.26C69.0102 32.86 68.8435 32.5667 68.5102 32.38C68.1768 32.1933 67.6835 32.04 67.0302 31.92L66.3502 31.8C65.6835 31.68 65.0768 31.5067 64.5302 31.28C63.9835 31.0533 63.5502 30.74 63.2302 30.34C62.9102 29.94 62.7502 29.4267 62.7502 28.8C62.7502 27.8667 63.0968 27.1467 63.7902 26.64C64.4835 26.12 65.4035 25.86 66.5502 25.86C67.6568 25.86 68.5635 26.1133 69.2702 26.62C69.9902 27.1133 70.4568 27.7867 70.6702 28.64L68.7502 29.18C68.6302 28.58 68.3768 28.16 67.9902 27.92C67.6035 27.6667 67.1235 27.54 66.5502 27.54C65.9902 27.54 65.5502 27.6467 65.2302 27.86C64.9102 28.06 64.7502 28.3467 64.7502 28.72C64.7502 29.12 64.9035 29.4133 65.2102 29.6C65.5302 29.7867 65.9568 29.9267 66.4902 30.02L67.1902 30.14C67.8968 30.26 68.5435 30.4267 69.1302 30.64C69.7168 30.8533 70.1768 31.16 70.5102 31.56C70.8568 31.96 71.0302 32.4933 71.0302 33.16C71.0302 34.1467 70.6635 34.9133 69.9302 35.46C69.1968 36.0067 68.2102 36.28 66.9702 36.28ZM73.438 36V26.14H75.498V36H73.438ZM74.478 24.8C74.078 24.8 73.738 24.6733 73.458 24.42C73.1913 24.1533 73.058 23.8133 73.058 23.4C73.058 22.9867 73.1913 22.6533 73.458 22.4C73.738 22.1333 74.078 22 74.478 22C74.8913 22 75.2313 22.1333 75.498 22.4C75.7646 22.6533 75.898 22.9867 75.898 23.4C75.898 23.8133 75.7646 24.1533 75.498 24.42C75.2313 24.6733 74.8913 24.8 74.478 24.8Z" fill="#FAFAFA"/>
</svg>
