<svg width="93" height="60" viewBox="0 0 93 60" fill="none" xmlns="http://www.w3.org/2000/svg">
<path d="M69.9291 14.9216H92V0.99999H0.999992V5.41417H12.2052C16.2798 5.41417 24.4291 7.53977 24.4291 14.9216H46.5V5.41417H58.0448C61.4403 5.41417 69.9291 7.53977 69.9291 14.9216Z" stroke="#7593FF" stroke-width="1.01866"/>
<path d="M23.0709 44.9216H1V58.8433H92V54.4291H80.7948C76.7202 54.4291 68.5709 52.3035 68.5709 44.9216H46.5V54.4291H34.9552C31.5597 54.4291 23.0709 52.3035 23.0709 44.9216Z" stroke="#7593FF" stroke-width="1.01866"/>
<path d="M18.46 36V22H22.52L25.58 34.56H25.9L28.96 22H33.02V36H30.92V23.52H30.6L27.56 36H23.92L20.88 23.52H20.56V36H18.46ZM40.6205 36.28C39.6338 36.28 38.7538 36.08 37.9805 35.68C37.2205 35.2667 36.6205 34.68 36.1805 33.92C35.7405 33.16 35.5205 32.26 35.5205 31.22V30.92C35.5205 29.88 35.7405 28.9867 36.1805 28.24C36.6205 27.48 37.2205 26.8933 37.9805 26.48C38.7538 26.0667 39.6338 25.86 40.6205 25.86C41.6071 25.86 42.4871 26.0667 43.2605 26.48C44.0338 26.8933 44.6405 27.48 45.0805 28.24C45.5205 28.9867 45.7405 29.88 45.7405 30.92V31.22C45.7405 32.26 45.5205 33.16 45.0805 33.92C44.6405 34.68 44.0338 35.2667 43.2605 35.68C42.4871 36.08 41.6071 36.28 40.6205 36.28ZM40.6205 34.44C41.5271 34.44 42.2605 34.1533 42.8205 33.58C43.3938 32.9933 43.6805 32.1867 43.6805 31.16V30.98C43.6805 29.9533 43.4005 29.1533 42.8405 28.58C42.2805 27.9933 41.5405 27.7 40.6205 27.7C39.7271 27.7 38.9938 27.9933 38.4205 28.58C37.8605 29.1533 37.5805 29.9533 37.5805 30.98V31.16C37.5805 32.1867 37.8605 32.9933 38.4205 33.58C38.9938 34.1533 39.7271 34.44 40.6205 34.44ZM52.3852 36.28C51.5718 36.28 50.8185 36.08 50.1252 35.68C49.4318 35.28 48.8718 34.7067 48.4452 33.96C48.0318 33.2 47.8252 32.2867 47.8252 31.22V30.92C47.8252 29.8667 48.0318 28.96 48.4452 28.2C48.8585 27.44 49.4118 26.86 50.1052 26.46C50.7985 26.06 51.5585 25.86 52.3852 25.86C53.0252 25.86 53.5585 25.94 53.9852 26.1C54.4252 26.26 54.7852 26.4667 55.0652 26.72C55.3452 26.96 55.5585 27.2133 55.7052 27.48H56.0252V22H58.0852V36H56.0652V34.6H55.7452C55.4918 35.0267 55.1052 35.4133 54.5852 35.76C54.0785 36.1067 53.3452 36.28 52.3852 36.28ZM52.9652 34.48C53.8585 34.48 54.5918 34.1933 55.1652 33.62C55.7518 33.0467 56.0452 32.2267 56.0452 31.16V30.98C56.0452 29.9267 55.7585 29.1133 55.1852 28.54C54.6118 27.9667 53.8718 27.68 52.9652 27.68C52.0852 27.68 51.3518 27.9667 50.7652 28.54C50.1918 29.1133 49.9052 29.9267 49.9052 30.98V31.16C49.9052 32.2267 50.1918 33.0467 50.7652 33.62C51.3518 34.1933 52.0852 34.48 52.9652 34.48ZM65.6377 36.28C64.6377 36.28 63.7643 36.0733 63.0177 35.66C62.271 35.2333 61.6843 34.64 61.2577 33.88C60.8443 33.1067 60.6377 32.2133 60.6377 31.2V30.96C60.6377 29.9333 60.8443 29.04 61.2577 28.28C61.671 27.5067 62.2443 26.9133 62.9777 26.5C63.7243 26.0733 64.5843 25.86 65.5577 25.86C66.5043 25.86 67.331 26.0733 68.0377 26.5C68.7577 26.9133 69.3177 27.4933 69.7177 28.24C70.1177 28.9867 70.3177 29.86 70.3177 30.86V31.64H62.7377C62.7643 32.5067 63.051 33.2 63.5977 33.72C64.1577 34.2267 64.851 34.48 65.6777 34.48C66.451 34.48 67.031 34.3067 67.4177 33.96C67.8177 33.6133 68.1243 33.2133 68.3377 32.76L70.0377 33.64C69.851 34.0133 69.5777 34.4067 69.2177 34.82C68.871 35.2333 68.411 35.58 67.8377 35.86C67.2643 36.14 66.531 36.28 65.6377 36.28ZM62.7577 30.06H68.2177C68.1643 29.3133 67.8977 28.7333 67.4177 28.32C66.9377 27.8933 66.311 27.68 65.5377 27.68C64.7643 27.68 64.131 27.8933 63.6377 28.32C63.1577 28.7333 62.8643 29.3133 62.7577 30.06ZM72.7973 36V22H74.8573V36H72.7973Z" fill="#FAFAFA"/>
</svg>
