<svg width="50" height="32" viewBox="0 0 50 32" fill="none" xmlns="http://www.w3.org/2000/svg">
<path fill-rule="evenodd" clip-rule="evenodd" d="M0 0.701477H50V22.4205H42.6589C40.2119 22.4205 37.1265 20.4878 37.1265 17.1594H24.9977V22.4205H17.6612C15.2142 22.4205 12.1288 20.4878 12.1288 17.1594H0V9.77049H7.34109C9.78812 9.77049 12.8735 11.7031 12.8735 15.0316H25.0023V9.77049H32.3388C34.7858 9.77049 37.8712 11.7031 37.8712 15.0316H50V8.58944H37.8712C37.8712 5.36837 34.7858 3.32837 30.9557 3.32837H24.9977V8.58944H12.8735C12.8735 5.36837 9.78812 3.32837 5.95798 3.32837H0V0.701477ZM25.0023 23.6015V28.8626H19.0443C15.2142 28.8626 12.1288 26.8226 12.1288 23.6015H0V31.2985H50V28.8626H44.042C40.2119 28.8626 37.1265 26.8226 37.1265 23.6015H25.0023Z" fill="url(#paint0_linear_75_160)"/>
<defs>
<linearGradient id="paint0_linear_75_160" x1="-6.596e-07" y1="15.6268" x2="49.9067" y2="15.1604" gradientUnits="userSpaceOnUse">
<stop stop-color="#B5C4FF"/>
<stop offset="0.250464" stop-color="#4E74FC"/>
<stop offset="0.501604" stop-color="#7F97EE"/>
<stop offset="0.783157" stop-color="#4E74FC"/>
<stop offset="1" stop-color="#B5C4FF"/>
</linearGradient>
</defs>
</svg>
